SourceCode_Black-Italic.ufo
<glyph name="ampersand_ampersand" format="1">
  <advance width="1200"/>
  <outline>
    <contour>
      <point x="911" y="-15"/>
      <point x="1107" y="144"/>
      <point x="1181" y="374" type="curve"/>
      <point x="1025" y="374" type="line"/>
      <point x="978" y="221"/>
      <point x="850" y="97"/>
      <point x="705" y="97" type="curve" smooth="yes"/>
      <point x="628" y="97"/>
      <point x="558" y="114"/>
      <point x="493" y="175" type="curve" smooth="yes"/>
      <point x="328" y="330"/>
      <point x="225" y="390"/>
      <point x="241" y="486" type="curve" smooth="yes"/>
      <point x="248" y="528"/>
      <point x="267" y="550"/>
      <point x="284" y="550" type="curve" smooth="yes"/>
      <point x="309" y="550"/>
      <point x="345" y="536"/>
      <point x="340" y="508" type="curve" smooth="yes"/>
      <point x="318" y="386"/>
      <point x="26" y="382"/>
      <point x="-10" y="176" type="curve" smooth="yes"/>
      <point x="-27" y="78"/>
      <point x="58" y="-12"/>
      <point x="158" y="-12" type="curve" smooth="yes"/>
      <point x="238" y="-12"/>
      <point x="345" y="14"/>
      <point x="422" y="60" type="curve" smooth="yes"/>
      <point x="634" y="186"/>
      <point x="950" y="392"/>
      <point x="970" y="508" type="curve" smooth="yes"/>
      <point x="986" y="601"/>
      <point x="908" y="662"/>
      <point x="804" y="662" type="curve" smooth="yes"/>
      <point x="700" y="662"/>
      <point x="611" y="601"/>
      <point x="594" y="507" type="curve" smooth="yes"/>
      <point x="569" y="369"/>
      <point x="911" y="21"/>
      <point x="1059" y="-5" type="curve"/>
      <point x="1123" y="126" type="line"/>
      <point x="944" y="181"/>
      <point x="704" y="388"/>
      <point x="725" y="507" type="curve" smooth="yes"/>
      <point x="732" y="547"/>
      <point x="768" y="560"/>
      <point x="785" y="560" type="curve" smooth="yes"/>
      <point x="810" y="560"/>
      <point x="836" y="543"/>
      <point x="830" y="508" type="curve" smooth="yes"/>
      <point x="819" y="442"/>
      <point x="592" y="297"/>
      <point x="336" y="138" type="curve" smooth="yes"/>
      <point x="307" y="120"/>
      <point x="264" y="110"/>
      <point x="227" y="112" type="curve" smooth="yes"/>
      <point x="182" y="114"/>
      <point x="145" y="137"/>
      <point x="153" y="186" type="curve" smooth="yes"/>
      <point x="173" y="306"/>
      <point x="442" y="346"/>
      <point x="470" y="508" type="curve" smooth="yes"/>
      <point x="486" y="602"/>
      <point x="403" y="662"/>
      <point x="299" y="662" type="curve" smooth="yes"/>
      <point x="195" y="662"/>
      <point x="117" y="580"/>
      <point x="100" y="486" type="curve" smooth="yes"/>
      <point x="79" y="370"/>
      <point x="176" y="295"/>
      <point x="387" y="84" type="curve" smooth="yes"/>
      <point x="461" y="10"/>
      <point x="569" y="-15"/>
      <point x="690" y="-15" type="curve" smooth="yes"/>
    </contour>
  </outline>
</glyph>
<glyph name="colon_equal" format="1">
  <advance width="1200"/>
  <outline>
    <contour>
      <point x="1133" y="156" type="line"/>
      <point x="1133" y="268" type="line"/>
      <point x="490" y="268" type="line"/>
      <point x="490" y="156" type="line"/>
    </contour>
    <contour>
      <point x="346" y="51"/>
      <point x="402" y="114"/>
      <point x="402" y="191" type="curve" smooth="yes"/>
      <point x="402" y="251"/>
      <point x="362" y="297"/>
      <point x="302" y="297" type="curve" smooth="yes"/>
      <point x="220" y="297"/>
      <point x="164" y="234"/>
      <point x="164" y="157" type="curve" smooth="yes"/>
      <point x="164" y="97"/>
      <point x="204" y="51"/>
      <point x="264" y="51" type="curve" smooth="yes"/>
    </contour>
    <contour>
      <point x="406" y="361"/>
      <point x="462" y="424"/>
      <point x="462" y="501" type="curve" smooth="yes"/>
      <point x="462" y="561"/>
      <point x="422" y="607"/>
      <point x="362" y="607" type="curve" smooth="yes"/>
      <point x="280" y="607"/>
      <point x="224" y="544"/>
      <point x="224" y="467" type="curve" smooth="yes"/>
      <point x="224" y="407"/>
      <point x="264" y="361"/>
      <point x="324" y="361" type="curve" smooth="yes"/>
    </contour>
    <contour>
      <point x="1133" y="392" type="line"/>
      <point x="1133" y="504" type="line"/>
      <point x="530" y="504" type="line"/>
      <point x="530" y="392" type="line"/>
    </contour>
  </outline>
</glyph>
<glyph name="equal_colon_equal" format="1">
  <advance width="1800"/>
  <outline>
    <contour>
      <point x="735" y="392" type="line"/>
      <point x="735" y="504" type="line"/>
      <point x="67" y="504" type="line"/>
      <point x="67" y="392" type="line"/>
    </contour>
    <contour>
      <point x="695" y="156" type="line"/>
      <point x="695" y="268" type="line"/>
      <point x="67" y="268" type="line"/>
      <point x="67" y="156" type="line"/>
    </contour>
    <contour>
      <point x="946" y="51"/>
      <point x="1002" y="114"/>
      <point x="1002" y="191" type="curve" smooth="yes"/>
      <point x="1002" y="251"/>
      <point x="962" y="297"/>
      <point x="902" y="297" type="curve" smooth="yes"/>
      <point x="820" y="297"/>
      <point x="764" y="234"/>
      <point x="764" y="157" type="curve" smooth="yes"/>
      <point x="764" y="97"/>
      <point x="804" y="51"/>
      <point x="864" y="51" type="curve" smooth="yes"/>
    </contour>
    <contour>
      <point x="1006" y="361"/>
      <point x="1062" y="424"/>
      <point x="1062" y="501" type="curve" smooth="yes"/>
      <point x="1062" y="561"/>
      <point x="1022" y="607"/>
      <point x="962" y="607" type="curve" smooth="yes"/>
      <point x="880" y="607"/>
      <point x="824" y="544"/>
      <point x="824" y="467" type="curve" smooth="yes"/>
      <point x="824" y="407"/>
      <point x="864" y="361"/>
      <point x="924" y="361" type="curve" smooth="yes"/>
    </contour>
    <contour>
      <point x="1733" y="156" type="line"/>
      <point x="1733" y="268" type="line"/>
      <point x="1090" y="268" type="line"/>
      <point x="1090" y="156" type="line"/>
    </contour>
    <contour>
      <point x="1733" y="392" type="line"/>
      <point x="1733" y="504" type="line"/>
      <point x="1130" y="504" type="line"/>
      <point x="1130" y="392" type="line"/>
    </contour>
  </outline>
</glyph>
<glyph name="equal_equal" format="1">
  <advance width="1200"/>
  <outline>
    <contour>
      <point x="64" y="390" type="line"/>
      <point x="1136" y="390" type="line"/>
      <point x="1136" y="510" type="line"/>
      <point x="64" y="510" type="line"/>
    </contour>
    <contour>
      <point x="64" y="150" type="line"/>
      <point x="1136" y="150" type="line"/>
      <point x="1136" y="270" type="line"/>
      <point x="64" y="270" type="line"/>
    </contour>
  </outline>
</glyph>
<glyph name="equal_equal_equal" format="1">
  <advance width="1800"/>
  <outline>
    <contour>
      <point x="64" y="390" type="line"/>
      <point x="1736" y="390" type="line"/>
      <point x="1736" y="510" type="line"/>
      <point x="64" y="510" type="line"/>
    </contour>
    <contour>
      <point x="64" y="150" type="line"/>
      <point x="1736" y="150" type="line"/>
      <point x="1736" y="270" type="line"/>
      <point x="64" y="270" type="line"/>
    </contour>
  </outline>
</glyph>
<glyph name="equal_exclam_equal" format="1">
  <advance width="1800"/>
  <outline>
    <contour>
      <point x="695" y="156" type="line"/>
      <point x="695" y="268" type="line"/>
      <point x="67" y="268" type="line"/>
      <point x="67" y="156" type="line"/>
    </contour>
    <contour>
      <point x="735" y="392" type="line"/>
      <point x="735" y="504" type="line"/>
      <point x="67" y="504" type="line"/>
      <point x="67" y="392" type="line"/>
    </contour>
    <contour>
      <point x="1733" y="156" type="line"/>
      <point x="1733" y="268" type="line"/>
      <point x="1090" y="268" type="line"/>
      <point x="1090" y="156" type="line"/>
    </contour>
    <contour>
      <point x="1733" y="392" type="line"/>
      <point x="1733" y="504" type="line"/>
      <point x="1130" y="504" type="line"/>
      <point x="1130" y="392" type="line"/>
    </contour>
    <component base="exclam" xOffset="600"/>
  </outline>
</glyph>
<glyph name="equal_greater" format="1">
  <advance width="1200"/>
  <outline>
    <contour>
      <point x="694" y="640" type="line"/>
      <point x="694" y="486" type="line"/>
      <point x="946" y="330" type="line"/>
      <point x="694" y="178" type="line"/>
      <point x="694" y="24" type="line"/>
      <point x="1177" y="332" type="line"/>
    </contour>
    <contour>
      <point x="64" y="390" type="line"/>
      <point x="880" y="390" type="line"/>
      <point x="880" y="510" type="line"/>
      <point x="64" y="510" type="line"/>
    </contour>
    <contour>
      <point x="64" y="153" type="line"/>
      <point x="880" y="153" type="line"/>
      <point x="880" y="271" type="line"/>
      <point x="64" y="271" type="line"/>
    </contour>
  </outline>
</glyph>
<glyph name="equal_less_less" format="1">
  <advance width="1800"/>
  <outline>
    <contour>
      <point x="64" y="390" type="line"/>
      <point x="943" y="390" type="line"/>
      <point x="983" y="510" type="line"/>
      <point x="64" y="510" type="line"/>
    </contour>
    <contour>
      <point x="64" y="150" type="line"/>
      <point x="983" y="150" type="line"/>
      <point x="983" y="270" type="line"/>
      <point x="64" y="270" type="line"/>
    </contour>
    <component base="less_less"/>
  </outline>
</glyph>
<glyph name="equal_slash_equal" format="1">
  <advance width="1800"/>
  <outline>
    <contour>
      <point x="721" y="-160" type="line"/>
      <point x="1225" y="710" type="line"/>
      <point x="1085" y="710" type="line"/>
      <point x="582" y="-160" type="line"/>
    </contour>
    <contour>
      <point x="708" y="156" type="line"/>
      <point x="772" y="268" type="line"/>
      <point x="67" y="268" type="line"/>
      <point x="67" y="156" type="line"/>
    </contour>
    <contour>
      <point x="844" y="392" type="line"/>
      <point x="909" y="504" type="line"/>
      <point x="67" y="504" type="line"/>
      <point x="67" y="392" type="line"/>
    </contour>
    <contour>
      <point x="1733" y="156" type="line"/>
      <point x="1733" y="268" type="line"/>
      <point x="1026" y="268" type="line"/>
      <point x="961" y="156" type="line"/>
    </contour>
    <contour>
      <point x="1733" y="392" type="line"/>
      <point x="1733" y="504" type="line"/>
      <point x="1163" y="504" type="line"/>
      <point x="1098" y="392" type="line"/>
    </contour>
  </outline>
</glyph>
<glyph name="greater_equal_greater" format="1">
  <advance width="1800"/>
  <outline>
    <contour>
      <point x="253" y="390" type="line"/>
      <point x="1480" y="390" type="line"/>
      <point x="1480" y="510" type="line"/>
      <point x="253" y="510" type="line"/>
    </contour>
    <contour>
      <point x="253" y="153" type="line"/>
      <point x="1480" y="153" type="line"/>
      <point x="1480" y="271" type="line"/>
      <point x="253" y="271" type="line"/>
    </contour>
    <contour>
      <point x="1294" y="24" type="line"/>
      <point x="1777" y="332" type="line"/>
      <point x="1294" y="640" type="line"/>
      <point x="1294" y="486" type="line"/>
      <point x="1546" y="330" type="line"/>
      <point x="1294" y="178" type="line"/>
    </contour>
    <component base="greater" xOffset="0"/>
  </outline>
</glyph>
<glyph name="hyphen_greater" format="1">
  <advance width="1200"/>
  <outline>
    <contour>
      <point x="64" y="270" type="line"/>
      <point x="846" y="270" type="line"/>
      <point x="694" y="178" type="line"/>
      <point x="694" y="24" type="line"/>
      <point x="1177" y="331" type="line"/>
      <point x="694" y="640" type="line"/>
      <point x="694" y="486" type="line"/>
      <point x="853" y="390" type="line"/>
      <point x="64" y="390" type="line"/>
    </contour>
  </outline>
</glyph>
<glyph name="hyphen_less" format="1">
  <advance width="1200"/>
  <outline>
    <contour>
      <point x="64" y="270" type="line"/>
      <point x="720" y="270" type="line"/>
      <point x="1106" y="24" type="line"/>
      <point x="1106" y="178" type="line"/>
      <point x="854" y="330" type="line"/>
      <point x="1106" y="486" type="line"/>
      <point x="1106" y="640" type="line"/>
      <point x="714" y="390" type="line"/>
      <point x="64" y="390" type="line"/>
    </contour>
  </outline>
</glyph>
<glyph name="less_asterisk_greater" format="1">
  <advance width="1800"/>
  <outline>
    <contour>
      <point x="1686" y="390" type="line"/>
      <point x="1088" y="676" type="line"/>
      <point x="1088" y="522" type="line"/>
      <point x="1546" y="334" type="line"/>
      <point x="1546" y="330" type="line"/>
      <point x="1095" y="146" type="line"/>
      <point x="1095" y="-8" type="line"/>
      <point x="1686" y="274" type="line"/>
    </contour>
    <contour>
      <point x="114" y="274" type="line"/>
      <point x="705" y="-8" type="line"/>
      <point x="705" y="146" type="line"/>
      <point x="254" y="330" type="line"/>
      <point x="254" y="334" type="line"/>
      <point x="705" y="522" type="line"/>
      <point x="705" y="676" type="line"/>
      <point x="114" y="390" type="line"/>
    </contour>
    <component base="asterisk" xOffset="600" yOffset="43"/>
  </outline>
</glyph>
<glyph name="less_exclam_hyphen_hyphen" format="1">
  <advance width="2400"/>
  <outline>
    <contour>
      <point x="522" y="102" type="line"/>
      <point x="329" y="270" type="line"/>
      <point x="759" y="270" type="line"/>
      <point x="785" y="390" type="line"/>
      <point x="329" y="390" type="line"/>
      <point x="522" y="558" type="line"/>
      <point x="442" y="650" type="line"/>
      <point x="110" y="332" type="line"/>
      <point x="110" y="328" type="line"/>
      <point x="442" y="10" type="line"/>
    </contour>
    <contour>
      <point x="918" y="-12"/>
      <point x="966" y="42"/>
      <point x="966" y="108" type="curve" smooth="yes"/>
      <point x="966" y="160"/>
      <point x="930" y="198"/>
      <point x="880" y="198" type="curve" smooth="yes"/>
      <point x="810" y="198"/>
      <point x="762" y="144"/>
      <point x="762" y="78" type="curve" smooth="yes"/>
      <point x="762" y="26"/>
      <point x="798" y="-12"/>
      <point x="848" y="-12" type="curve" smooth="yes"/>
    </contour>
    <contour>
      <point x="944" y="264" type="line"/>
      <point x="1026" y="522" type="line"/>
      <point x="1056" y="670" type="line"/>
      <point x="892" y="670" type="line"/>
      <point x="868" y="522" type="line"/>
      <point x="840" y="264" type="line"/>
    </contour>
    <contour>
      <point x="2336" y="270" type="line"/>
      <point x="2336" y="390" type="line"/>
      <point x="1051" y="390" type="line"/>
      <point x="1025" y="270" type="line"/>
    </contour>
  </outline>
</glyph>
<glyph name="numbersign_numbersign_numbersign" format="1">
  <advance width="1800"/>
  <outline>
    <contour>
      <point x="145" y="0" type="line"/>
      <point x="202" y="183" type="line"/>
      <point x="306" y="183" type="line"/>
      <point x="250" y="0" type="line"/>
      <point x="341" y="0" type="line"/>
      <point x="396" y="183" type="line"/>
      <point x="712" y="183" type="line"/>
      <point x="654" y="0" type="line"/>
      <point x="745" y="0" type="line"/>
      <point x="802" y="183" type="line"/>
      <point x="906" y="183" type="line"/>
      <point x="850" y="0" type="line"/>
      <point x="941" y="0" type="line"/>
      <point x="996" y="183" type="line"/>
      <point x="1312" y="183" type="line"/>
      <point x="1254" y="0" type="line"/>
      <point x="1345" y="0" type="line"/>
      <point x="1402" y="183" type="line"/>
      <point x="1506" y="183" type="line"/>
      <point x="1450" y="0" type="line"/>
      <point x="1541" y="0" type="line"/>
      <point x="1596" y="183" type="line"/>
      <point x="1729" y="183" type="line"/>
      <point x="1753" y="274" type="line"/>
      <point x="1624" y="274" type="line"/>
      <point x="1661" y="397" type="line"/>
      <point x="1785" y="397" type="line"/>
      <point x="1810" y="488" type="line"/>
      <point x="1689" y="488" type="line"/>
      <point x="1738" y="650" type="line"/>
      <point x="1648" y="650" type="line"/>
      <point x="1599" y="488" type="line"/>
      <point x="1498" y="488" type="line"/>
      <point x="1549" y="650" type="line"/>
      <point x="1460" y="650" type="line"/>
      <point x="1409" y="488" type="line"/>
      <point x="1089" y="488" type="line"/>
      <point x="1138" y="650" type="line"/>
      <point x="1048" y="650" type="line"/>
      <point x="999" y="488" type="line"/>
      <point x="898" y="488" type="line"/>
      <point x="949" y="650" type="line"/>
      <point x="860" y="650" type="line"/>
      <point x="809" y="488" type="line"/>
      <point x="489" y="488" type="line"/>
      <point x="538" y="650" type="line"/>
      <point x="448" y="650" type="line"/>
      <point x="399" y="488" type="line"/>
      <point x="298" y="488" type="line"/>
      <point x="349" y="650" type="line"/>
      <point x="260" y="650" type="line"/>
      <point x="209" y="488" type="line"/>
      <point x="81" y="488" type="line"/>
      <point x="57" y="397" type="line"/>
      <point x="180" y="397" type="line"/>
      <point x="141" y="274" type="line"/>
      <point x="24" y="274" type="line"/>
      <point x="0" y="183" type="line"/>
      <point x="112" y="183" type="line"/>
      <point x="54" y="0" type="line"/>
    </contour>
    <contour>
      <point x="270" y="397" type="line"/>
      <point x="371" y="397" type="line"/>
      <point x="333" y="274" type="line"/>
      <point x="231" y="274" type="line"/>
    </contour>
    <contour>
      <point x="461" y="397" type="line"/>
      <point x="780" y="397" type="line"/>
      <point x="741" y="274" type="line"/>
      <point x="424" y="274" type="line"/>
    </contour>
    <contour>
      <point x="870" y="397" type="line"/>
      <point x="971" y="397" type="line"/>
      <point x="933" y="274" type="line"/>
      <point x="831" y="274" type="line"/>
    </contour>
    <contour>
      <point x="1061" y="397" type="line"/>
      <point x="1380" y="397" type="line"/>
      <point x="1341" y="274" type="line"/>
      <point x="1024" y="274" type="line"/>
    </contour>
    <contour>
      <point x="1470" y="397" type="line"/>
      <point x="1571" y="397" type="line"/>
      <point x="1533" y="274" type="line"/>
      <point x="1431" y="274" type="line"/>
    </contour>
  </outline>
</glyph>
<glyph name="numbersign_numbersign_numbersign_numbersign" format="1">
  <advance width="2400"/>
  <outline>
    <contour>
      <point x="145" y="0" type="line"/>
      <point x="202" y="183" type="line"/>
      <point x="306" y="183" type="line"/>
      <point x="250" y="0" type="line"/>
      <point x="341" y="0" type="line"/>
      <point x="396" y="183" type="line"/>
      <point x="712" y="183" type="line"/>
      <point x="654" y="0" type="line"/>
      <point x="745" y="0" type="line"/>
      <point x="802" y="183" type="line"/>
      <point x="906" y="183" type="line"/>
      <point x="850" y="0" type="line"/>
      <point x="941" y="0" type="line"/>
      <point x="996" y="183" type="line"/>
      <point x="1312" y="183" type="line"/>
      <point x="1254" y="0" type="line"/>
      <point x="1345" y="0" type="line"/>
      <point x="1402" y="183" type="line"/>
      <point x="1506" y="183" type="line"/>
      <point x="1450" y="0" type="line"/>
      <point x="1541" y="0" type="line"/>
      <point x="1596" y="183" type="line"/>
      <point x="1912" y="183" type="line"/>
      <point x="1854" y="0" type="line"/>
      <point x="1945" y="0" type="line"/>
      <point x="2002" y="183" type="line"/>
      <point x="2106" y="183" type="line"/>
      <point x="2050" y="0" type="line"/>
      <point x="2141" y="0" type="line"/>
      <point x="2196" y="183" type="line"/>
      <point x="2329" y="183" type="line"/>
      <point x="2353" y="274" type="line"/>
      <point x="2224" y="274" type="line"/>
      <point x="2261" y="397" type="line"/>
      <point x="2385" y="397" type="line"/>
      <point x="2410" y="488" type="line"/>
      <point x="2289" y="488" type="line"/>
      <point x="2338" y="650" type="line"/>
      <point x="2248" y="650" type="line"/>
      <point x="2199" y="488" type="line"/>
      <point x="2098" y="488" type="line"/>
      <point x="2149" y="650" type="line"/>
      <point x="2060" y="650" type="line"/>
      <point x="2009" y="488" type="line"/>
      <point x="1689" y="488" type="line"/>
      <point x="1738" y="650" type="line"/>
      <point x="1648" y="650" type="line"/>
      <point x="1599" y="488" type="line"/>
      <point x="1498" y="488" type="line"/>
      <point x="1549" y="650" type="line"/>
      <point x="1460" y="650" type="line"/>
      <point x="1409" y="488" type="line"/>
      <point x="1089" y="488" type="line"/>
      <point x="1138" y="650" type="line"/>
      <point x="1048" y="650" type="line"/>
      <point x="999" y="488" type="line"/>
      <point x="898" y="488" type="line"/>
      <point x="949" y="650" type="line"/>
      <point x="860" y="650" type="line"/>
      <point x="809" y="488" type="line"/>
      <point x="489" y="488" type="line"/>
      <point x="538" y="650" type="line"/>
      <point x="448" y="650" type="line"/>
      <point x="399" y="488" type="line"/>
      <point x="298" y="488" type="line"/>
      <point x="349" y="650" type="line"/>
      <point x="260" y="650" type="line"/>
      <point x="209" y="488" type="line"/>
      <point x="81" y="488" type="line"/>
      <point x="57" y="397" type="line"/>
      <point x="180" y="397" type="line"/>
      <point x="141" y="274" type="line"/>
      <point x="24" y="274" type="line"/>
      <point x="0" y="183" type="line"/>
      <point x="112" y="183" type="line"/>
      <point x="54" y="0" type="line"/>
    </contour>
    <contour>
      <point x="270" y="397" type="line"/>
      <point x="371" y="397" type="line"/>
      <point x="333" y="274" type="line"/>
      <point x="231" y="274" type="line"/>
    </contour>
    <contour>
      <point x="461" y="397" type="line"/>
      <point x="780" y="397" type="line"/>
      <point x="741" y="274" type="line"/>
      <point x="424" y="274" type="line"/>
    </contour>
    <contour>
      <point x="870" y="397" type="line"/>
      <point x="971" y="397" type="line"/>
      <point x="933" y="274" type="line"/>
      <point x="831" y="274" type="line"/>
    </contour>
    <contour>
      <point x="1061" y="397" type="line"/>
      <point x="1380" y="397" type="line"/>
      <point x="1341" y="274" type="line"/>
      <point x="1024" y="274" type="line"/>
    </contour>
    <contour>
      <point x="1470" y="397" type="line"/>
      <point x="1571" y="397" type="line"/>
      <point x="1533" y="274" type="line"/>
      <point x="1431" y="274" type="line"/>
    </contour>
    <contour>
      <point x="1661" y="397" type="line"/>
      <point x="1980" y="397" type="line"/>
      <point x="1941" y="274" type="line"/>
      <point x="1624" y="274" type="line"/>
    </contour>
    <contour>
      <point x="2070" y="397" type="line"/>
      <point x="2171" y="397" type="line"/>
      <point x="2133" y="274" type="line"/>
      <point x="2031" y="274" type="line"/>
    </contour>
  </outline>
</glyph>
<glyph name="period_equal" format="1">
  <advance width="1200"/>
  <outline>
    <contour>
      <point x="1133" y="156" type="line"/>
      <point x="1133" y="268" type="line"/>
      <point x="490" y="268" type="line"/>
      <point x="490" y="156" type="line"/>
    </contour>
    <contour>
      <point x="324" y="226"/>
      <point x="380" y="289"/>
      <point x="380" y="366" type="curve" smooth="yes"/>
      <point x="380" y="426"/>
      <point x="340" y="472"/>
      <point x="280" y="472" type="curve" smooth="yes"/>
      <point x="198" y="472"/>
      <point x="142" y="409"/>
      <point x="142" y="332" type="curve" smooth="yes"/>
      <point x="142" y="272"/>
      <point x="182" y="226"/>
      <point x="242" y="226" type="curve" smooth="yes"/>
    </contour>
    <contour>
      <point x="1133" y="392" type="line"/>
      <point x="1133" y="504" type="line"/>
      <point x="530" y="504" type="line"/>
      <point x="530" y="392" type="line"/>
    </contour>
  </outline>
</glyph>
<glyph name="plus_plus" format="1">
  <advance width="1200"/>
  <outline>
    <contour>
      <point x="84" y="274" type="line"/>
      <point x="203" y="274" type="line"/>
      <point x="203" y="386" type="line"/>
      <point x="84" y="386" type="line"/>
    </contour>
    <contour>
      <point x="965" y="274" type="line"/>
      <point x="1116" y="274" type="line"/>
      <point x="1116" y="386" type="line"/>
      <point x="965" y="386" type="line"/>
    </contour>
    <contour>
      <point x="467" y="274" type="line"/>
      <point x="746" y="274" type="line"/>
      <point x="746" y="386" type="line"/>
      <point x="467" y="386" type="line"/>
    </contour>
    <component base="plus" xOffset="519"/>
    <component base="plus" xOffset="81"/>
  </outline>
</glyph>
<glyph name="plus_plus_plus" format="1">
  <advance width="1800"/>
  <outline>
    <contour>
      <point x="64" y="270" type="line"/>
      <point x="1736" y="270" type="line"/>
      <point x="1736" y="390" type="line"/>
      <point x="64" y="390" type="line"/>
    </contour>
    <component base="plus" xOffset="1075"/>
    <component base="plus" xOffset="600"/>
    <component base="plus" xOffset="125"/>
  </outline>
</glyph>
<glyph name="slash_equal" format="1">
  <advance width="1200"/>
  <outline>
    <contour>
      <point x="121" y="-160" type="line"/>
      <point x="625" y="710" type="line"/>
      <point x="485" y="710" type="line"/>
      <point x="-18" y="-160" type="line"/>
    </contour>
    <contour>
      <point x="1133" y="156" type="line"/>
      <point x="1133" y="268" type="line"/>
      <point x="426" y="268" type="line"/>
      <point x="361" y="156" type="line"/>
    </contour>
    <contour>
      <point x="1133" y="392" type="line"/>
      <point x="1133" y="504" type="line"/>
      <point x="563" y="504" type="line"/>
      <point x="498" y="392" type="line"/>
    </contour>
  </outline>
</glyph>
<glyph name="slash_equal_equal" format="1">
  <advance width="1800"/>
  <outline>
    <contour>
      <point x="121" y="-160" type="line"/>
      <point x="625" y="710" type="line"/>
      <point x="485" y="710" type="line"/>
      <point x="-18" y="-160" type="line"/>
    </contour>
    <contour>
      <point x="1733" y="37" type="line"/>
      <point x="1733" y="149" type="line"/>
      <point x="357" y="149" type="line"/>
      <point x="292" y="37" type="line"/>
    </contour>
    <contour>
      <point x="1733" y="274" type="line"/>
      <point x="1733" y="386" type="line"/>
      <point x="494" y="386" type="line"/>
      <point x="429" y="274" type="line"/>
    </contour>
    <contour>
      <point x="1733" y="511" type="line"/>
      <point x="1733" y="623" type="line"/>
      <point x="632" y="623" type="line"/>
      <point x="567" y="511" type="line"/>
    </contour>
  </outline>
</glyph>
<glyph name="w_w_w" format="1">
  <advance width="1800"/>
  <outline>
    <contour>
      <point x="377" y="0" type="line"/>
      <point x="427" y="152" type="line" smooth="yes"/>
      <point x="447" y="213"/>
      <point x="455" y="245"/>
      <point x="469" y="299" type="curve"/>
      <point x="473" y="299" type="line"/>
      <point x="468" y="244"/>
      <point x="462" y="200"/>
      <point x="460" y="154" type="curve" smooth="yes"/>
      <point x="453" y="0" type="line"/>
      <point x="591" y="0" type="line"/>
      <point x="641" y="152" type="line" smooth="yes"/>
      <point x="661" y="213"/>
      <point x="669" y="245"/>
      <point x="683" y="299" type="curve"/>
      <point x="687" y="299" type="line"/>
      <point x="682" y="244"/>
      <point x="676" y="200"/>
      <point x="674" y="154" type="curve" smooth="yes"/>
      <point x="667" y="0" type="line"/>
      <point x="805" y="0" type="line"/>
      <point x="855" y="152" type="line" smooth="yes"/>
      <point x="875" y="213"/>
      <point x="883" y="245"/>
      <point x="897" y="299" type="curve"/>
      <point x="901" y="299" type="line"/>
      <point x="896" y="244"/>
      <point x="890" y="200"/>
      <point x="888" y="154" type="curve" smooth="yes"/>
      <point x="881" y="0" type="line"/>
      <point x="1019" y="0" type="line"/>
      <point x="1069" y="152" type="line" smooth="yes"/>
      <point x="1089" y="213"/>
      <point x="1097" y="245"/>
      <point x="1111" y="299" type="curve"/>
      <point x="1115" y="299" type="line"/>
      <point x="1110" y="244"/>
      <point x="1104" y="200"/>
      <point x="1102" y="154" type="curve" smooth="yes"/>
      <point x="1095" y="0" type="line"/>
      <point x="1233" y="0" type="line"/>
      <point x="1283" y="152" type="line" smooth="yes"/>
      <point x="1303" y="213"/>
      <point x="1311" y="245"/>
      <point x="1325" y="299" type="curve"/>
      <point x="1329" y="299" type="line"/>
      <point x="1324" y="244"/>
      <point x="1318" y="200"/>
      <point x="1316" y="154" type="curve" smooth="yes"/>
      <point x="1309" y="0" type="line"/>
      <point x="1486" y="0" type="line"/>
      <point x="1654" y="500" type="line"/>
      <point x="1508" y="500" type="line"/>
      <point x="1447" y="277" type="line" smooth="yes"/>
      <point x="1433" y="227"/>
      <point x="1421" y="177"/>
      <point x="1405" y="126" type="curve"/>
      <point x="1401" y="126" type="line"/>
      <point x="1404" y="177"/>
      <point x="1406" y="227"/>
      <point x="1406" y="277" type="curve" smooth="yes"/>
      <point x="1407" y="426" type="line"/>
      <point x="1299" y="426" type="line"/>
      <point x="1243" y="277" type="line" smooth="yes"/>
      <point x="1225" y="228"/>
      <point x="1206" y="177"/>
      <point x="1191" y="126" type="curve"/>
      <point x="1187" y="126" type="line"/>
      <point x="1190" y="177"/>
      <point x="1192" y="227"/>
      <point x="1192" y="277" type="curve" smooth="yes"/>
      <point x="1193" y="426" type="line"/>
      <point x="1085" y="426" type="line"/>
      <point x="1029" y="277" type="line" smooth="yes"/>
      <point x="1011" y="228"/>
      <point x="992" y="177"/>
      <point x="977" y="126" type="curve"/>
      <point x="973" y="126" type="line"/>
      <point x="976" y="177"/>
      <point x="978" y="227"/>
      <point x="978" y="277" type="curve" smooth="yes"/>
      <point x="979" y="426" type="line"/>
      <point x="871" y="426" type="line"/>
      <point x="815" y="277" type="line" smooth="yes"/>
      <point x="797" y="228"/>
      <point x="778" y="177"/>
      <point x="763" y="126" type="curve"/>
      <point x="759" y="126" type="line"/>
      <point x="762" y="177"/>
      <point x="764" y="227"/>
      <point x="764" y="277" type="curve" smooth="yes"/>
      <point x="765" y="426" type="line"/>
      <point x="657" y="426" type="line"/>
      <point x="601" y="277" type="line" smooth="yes"/>
      <point x="583" y="228"/>
      <point x="564" y="177"/>
      <point x="549" y="126" type="curve"/>
      <point x="545" y="126" type="line"/>
      <point x="548" y="177"/>
      <point x="549" y="227"/>
      <point x="550" y="277" type="curve" smooth="yes"/>
      <point x="551" y="426" type="line"/>
      <point x="443" y="426" type="line"/>
      <point x="387" y="277" type="line"/>
      <point x="367" y="229"/>
      <point x="350" y="177"/>
      <point x="335" y="126" type="curve"/>
      <point x="331" y="126" type="line"/>
      <point x="335" y="177"/>
      <point x="341" y="227"/>
      <point x="347" y="277" type="curve" smooth="yes"/>
      <point x="372" y="500" type="line"/>
      <point x="220" y="500" type="line"/>
      <point x="193" y="0" type="line"/>
    </contour>
    <contour>
      <point x="330" y="523" type="move" name="aboveLC"/>
    </contour>
    <contour>
      <point x="240" y="-20" type="move" name="belowLC"/>
    </contour>
  </outline>
</glyph>
